<?xml version="1.0" standalone="no"?>
<!DOCTYPE svg PUBLIC "-//W3C//DTD SVG 20010904//EN"
 "http://www.w3.org/TR/2001/REC-SVG-20010904/DTD/svg10.dtd">
<svg version="1.0" xmlns="http://www.w3.org/2000/svg"
 width="700.000000pt" height="700.000000pt" viewBox="0 0 700.000000 700.000000"
 preserveAspectRatio="xMidYMid meet">
<metadata>
Created by potrace 1.11, written by Peter Selinger 2001-2013
</metadata>
<g transform="translate(0.000000,700.000000) scale(0.100000,-0.100000)"
fill="#000000" stroke="none">
<path d="M1115 6061 c-69 -17 -125 -62 -161 -131 -18 -34 -19 -80 -19 -1115
l0 -1080 1165 0 1165 0 0 1165 0 1165 -1060 1 c-583 1 -1073 -1 -1090 -5z"/>
<path d="M3735 6058 c-3 -7 -4 -533 -3 -1168 l3 -1155 1165 0 1165 0 0 1080 0
1080 -22 40 c-25 47 -64 85 -113 111 -33 18 -83 19 -1113 22 -865 2 -1078 0
-1082 -10z"/>
<path d="M934 3257 c-2 -7 -3 -494 -2 -1082 3 -1022 4 -1072 22 -1105 26 -49
64 -88 111 -113 l40 -22 1080 0 1080 0 0 1165 0 1165 -1163 3 c-939 2 -1164 0
-1168 -11z"/>
<path d="M3735 3258 c-3 -7 -4 -533 -3 -1168 l3 -1155 1080 0 1080 0 40 22
c47 25 85 64 111 113 18 34 19 80 19 1115 l0 1080 -1163 3 c-925 2 -1164 0
-1167 -10z"/>
</g>
</svg>
